<?xml version="1.0" ?>
<svg height="24" version="1.1" width="24" xmlns="http://www.w3.org/2000/svg" xmlns:cc="http://creativecommons.org/ns#" xmlns:dc="http://purl.org/dc/elements/1.1/" xmlns:rdf="http://www.w3.org/1999/02/22-rdf-syntax-ns#">
  <g transform="translate(0 -1028.4)">
    <!-- Outer path -->
    <path d="m12.031 1030.4c-3.8657 0-6.9998 3.1-6.9998 7 0 1.3 0.4017 2.6 1.0938 3.7 0.0334 0.1 0.059 0.1 0.0938 0.2l4.3432 8c0.204 0.6 0.782 1.1 1.438 1.1s1.202-0.5 1.406-1.1l4.844-8.7c0.499-1 0.781-2.1 0.781-3.2 0-3.9-3.134-7-7-7zm-0.031 3.9c1.933 0 3.5 1.6 3.5 3.5 0 2-1.567 3.5-3.5 3.5s-3.5-1.5-3.5-3.5c0-1.9 1.567-3.5 3.5-3.5z" fill="#0393bc"/>
    
    <!-- Inner transparent path -->
    <path d="m12.031 1031.4c-3.3657 0-6.0998 2.7-6.0998 6 0 1.1 0.3017 2.2 0.8938 3.1 0.0334 0.1 0.059 0.1 0.0938 0.2l3.7432 6.9c0.204 0.5 0.682 0.9 1.238 0.9s1.002-0.4 1.206-0.9l4.144-7.5c0.399-0.8 0.681-1.8 0.681-2.7 0-3.3-2.734-6-6.1-6zm-0.031 3.4c1.633 0 2.9 1.3 2.9 2.9 0 1.7-1.267 2.9-2.9 2.9s-2.9-1.2-2.9-2.9c0-1.6 1.267-2.9 2.9-2.9z" fill="#00b7eb"/>

    <!-- Border for the inner path -->
    <path d="m12.031 1031.4c-3.3657 0-6.0998 2.7-6.0998 6 0 1.1 0.3017 2.2 0.8938 3.1 0.0334 0.1 0.059 0.1 0.0938 0.2l3.7432 6.9c0.204 0.5 0.682 0.9 1.238 0.9s1.002-0.4 1.206-0.9l4.144-7.5c0.399-0.8 0.681-1.8 0.681-2.7 0-3.3-2.734-6-6.1-6zm-0.031 3.4c1.633 0 2.9 1.3 2.9 2.9 0 1.7-1.267 2.9-2.9 2.9s-2.9-1.2-2.9-2.9c0-1.6 1.267-2.9 2.9-2.9z" fill="none" stroke="#0393bc" stroke-width="1"/>
  </g>
</svg>
